<svg xmlns="http://www.w3.org/2000/svg" width="150px" height="35px" viewBox="0 -2 290 65" >

<style>
#ric{
stroke: #def;
animation: an 13s cubic-bezier(.5,0,.5,1) 0s 50;
}
@keyframes an {
  0%  {
   stroke-width: 0px;
transform:rotate(0deg)
   }  50%  {
   stroke-width: 5px;

   }
  100% {
   stroke-width: 0px;
transform:rotate(360deg)
}
}
.tr{
transform-origin: 253px 30px;}
.a1{fill:#cde;}
.a2{fill:#f0f5f9;}
</style>


  <defs>
   <linearGradient id="lgrad" x1="0%" y1="50%" x2="100%" y2="50%" >
    
          <stop stop-color="#f0f5f9" >
		  <animate attributeName="offset" values="50%;0%;50%" dur="3.29s" repeatCount="indefinite" />
	
		   </stop>
          <stop>
		  <animate attributeName="offset" values="80%;20%;80%" dur="5s" keyTimes="0; 0.9; 1" repeatCount="indefinite" />
		  <animate attributeName="stop-color" values="#cde0;#cdef;#cde0" keyTimes="0; 0.9; 1" dur="6.33s" repeatCount="indefinite" />
		  </stop>

          <stop stop-color="#f0f5f9" >
	  <animate attributeName="offset" values="100%;50%;100%" dur="4.13s" repeatCount="indefinite" />
		   </stop>

    </linearGradient>
  </defs>








<g fill="url(#lgrad)" stroke="#cde" stroke-width="3" stroke-dasharray="100,0">
<animate attributeName="stroke" values="#cdef;#cdef;#cde5;#cdef;#cdef;#cdef;" dur="12.23s" repeatCount="5" />
<animate attributeName="stroke-dasharray" values="100,2;100,0;100,2" dur="14.153s" repeatCount="4" />
<animate attributeName="stroke-dashoffset" values="0;100;500" dur="14.13s" repeatCount="5" />
	<path d="M11.6,22.5c0-1.4,0-2.8,0-4.2h27.9c0,6.7,0,13.5,0,20.2c0,0.4,0.1,2.8-1.9,4.7c-2.1,2.1-4.9,1.7-5.2,1.7
		c-5.1,0-10.1,0-15.2,0c-0.5,0-2.2-0.1-3.6-1.3c-1.1-1-1.5-2.1-1.7-2.6c-0.4-1.1-0.3-2-0.3-2.5c0-1.4,0-2.9,0-4.3l17,0V29
		c-3.9,0-7.8,0-11.6,0c-0.4,0-2.3,0-3.8-1.5C11,25.6,11.6,22.7,11.6,22.5zM58.6,48.9c1-1.4,1.7-2.8,2.2-4c-4.1,0-8.2,0-12.3,0c-3.4,0-5-1.8-4.7-5.4l-0.1-15.5c0.2-1.8,0.8-3.1,1.7-4
		c0.9-0.9,2.2-1.4,3.8-1.5h22.4v15.8c2.8,0,5.6,0,8.4,0c0.1-3.4,0.1-6.8,0.2-10.2c0-0.3,0-2.7,1.9-4.3c1.4-1.2,3-1.2,3.5-1.2
		c7.5,0,14.9,0,22.4,0c0.1,2.2,0.3,11.5,0,19.5c-0.1,1.3-0.2,3.6-1.8,5.2c-1.6,1.6-4,1.8-5.2,1.8c-4.8,0.2-15.4,0.3-29.4,0
		c-0.3,1.5-0.9,3.9-2.5,6.3c-1.9,3-4.3,4.8-5.7,5.7c-4.7,0-9.4,0-14.1,0C51.8,55.7,55.7,53.3,58.6,48.9z M60.8,34.1V29h-6.2v5.1
		H60.8z M97.2,34.1V29l-6.2,0.1v5H97.2zM129.2,8.3c0.4-3.5,2.2-5.4,5.4-5.6h5.4v36.6c-0.4,3.5-2.2,5.3-5.4,5.5h-5.4V8.3zM159.7,18.3v20.5c0,2-0.1,3.8-0.3,5.5s-0.6,3.2-1.2,4.6s-1.4,2.8-2.5,4.1s-2.5,2.6-4.3,3.9h-14.1c1.2-0.9,2.4-1.8,3.6-2.7
		s2.4-1.9,3.4-2.9s1.9-2,2.7-3.1s1.2-2.2,1.4-3.4V26.8c-0.1-4.8,1.8-7.6,5.6-8.5H159.7zM164.2,44.9c-0.1-12.2-0.1-24.4-0.2-36.6c0.4-3.5,2.2-5.4,5.4-5.6h5.4v31.3c6.4,0,12.8,0,19.2,0c-0.3-4.3-0.2-7.6,0-9.4
		c0.1-0.6,0.2-1.4,0.6-2.5c0.4-1.1,0.9-1.7,1.1-2c0.4-0.5,0.9-0.9,1-1c0,0,0.3-0.2,0.6-0.4c0.7-0.4,1.5-0.5,2.1-0.6
		c2-0.2,5.2,0,5.4,0c-0.2,10.3-0.1,14.4,0,15.8c0,0.2,0.1,1.2,0,2.5c0,0.5-0.1,1.2-0.4,2.2c-0.2,0.8-0.6,2.1-1.6,3.4
		c-0.7,0.9-1.5,1.4-1.6,1.6c-0.1,0.1-0.5,0.3-1,0.5c-1.5,0.7-3,0.6-3.3,0.6C195.1,44.8,182.1,44.9,164.2,44.9z"/>


		
		<circle cx="184" cy="53" r="5.5"/>
		<circle cx="196" cy="53" r="5.5"/>
</g>





<g id="ric" class="tr">
	<path class="a1" d="M259.2,2.2c-1-1.2-3-1.4-4.2-0.3c-1.2-0.7-2.7-0.7-4,0c-1.2-1-3.2-0.9-4.2,0.3c-0.6,0.7-0.8,1.5-0.7,2.4
		l2.8,19.5c0.1,0.5,0.5,0.9,1,0.9h6.2c0.5,0,1-0.4,1-0.9l2.8-19.5C260,3.7,259.8,2.8,259.2,2.2z"/>
	<path class="a2" d="M251.9,24.9h2.3L255,1.8c0,0,0,0,0,0c-1.2-0.7-2.7-0.7-4,0c0,0,0,0,0,0L251.9,24.9z"/>
</g>


<use href="#ric" class="tr" style="transform:rotate(45deg)"/>
<use href="#ric" class="tr" style="transform:rotate(90deg)"/>
<use href="#ric" class="tr" style="transform:rotate(135deg)"/>
<use href="#ric" class="tr" style="transform:rotate(180deg)"/>
<use href="#ric" class="tr" style="transform:rotate(225deg)"/>
<use href="#ric" class="tr" style="transform:rotate(270deg)"/>
<use href="#ric" class="tr" style="transform:rotate(315deg)"/>


<path class="a1" d="M253.4,23.4l0.7-0.3c0.3-0.1,0.7-0.1,1,0.2l0.6,0.6c0.2,0.2,0.4,0.3,0.6,0.3l0.8,0c0.4,0,0.7,0.2,0.8,0.6
	l0.3,0.7c0.1,0.2,0.3,0.4,0.5,0.5l0.7,0.3c0.3,0.1,0.6,0.5,0.6,0.8l0,0.8c0,0.2,0.1,0.5,0.3,0.6l0.6,0.6c0.3,0.3,0.3,0.7,0.2,1
	l-0.3,0.7c-0.1,0.2-0.1,0.5,0,0.7l0.3,0.7c0.1,0.3,0.1,0.7-0.2,1l-0.6,0.6c-0.2,0.2-0.3,0.4-0.3,0.6l0,0.8c0,0.4-0.2,0.7-0.6,0.8
	l-0.7,0.3c-0.2,0.1-0.4,0.3-0.5,0.5l-0.3,0.7c-0.1,0.3-0.5,0.6-0.8,0.6l-0.8,0c-0.2,0-0.5,0.1-0.6,0.3l-0.6,0.6
	c-0.3,0.3-0.7,0.3-1,0.2l-0.7-0.3c-0.2-0.1-0.5-0.1-0.7,0l-0.7,0.3c-0.3,0.1-0.7,0.1-1-0.2l-0.6-0.6c-0.2-0.2-0.4-0.3-0.6-0.3
	l-0.8,0c-0.4,0-0.7-0.2-0.8-0.6l-0.3-0.7c-0.1-0.2-0.3-0.4-0.5-0.5l-0.7-0.3c-0.3-0.1-0.6-0.5-0.6-0.8l0-0.8c0-0.2-0.1-0.5-0.3-0.6
	l-0.6-0.6c-0.3-0.3-0.3-0.7-0.2-1l0.3-0.7c0.1-0.2,0.1-0.5,0-0.7l-0.3-0.7c-0.1-0.3-0.1-0.7,0.2-1l0.6-0.6c0.2-0.2,0.3-0.4,0.3-0.6
	l0-0.8c0-0.4,0.2-0.7,0.6-0.8l0.7-0.3c0.2-0.1,0.4-0.3,0.5-0.5l0.3-0.7c0.1-0.3,0.5-0.6,0.8-0.6l0.8,0c0.2,0,0.5-0.1,0.6-0.3
	l0.6-0.6c0.3-0.3,0.7-0.3,1-0.2l0.7,0.3C252.9,23.5,253.1,23.5,253.4,23.4z"/>
<path class="a2" d="M253.2,26.6l1.3-0.4c0.4-0.1,0.8,0,1,0.4l0.6,1.2c0.1,0.1,0.2,0.3,0.3,0.3l1.2,0.6c0.3,0.2,0.5,0.6,0.4,1
	l-0.4,1.3c-0.1,0.2-0.1,0.3,0,0.5l0.4,1.3c0.1,0.4,0,0.8-0.4,1l-1.2,0.6c-0.1,0.1-0.3,0.2-0.3,0.3l-0.6,1.2c-0.2,0.3-0.6,0.5-1,0.4
	l-1.3-0.4c-0.2-0.1-0.3-0.1-0.5,0l-1.3,0.4c-0.4,0.1-0.8,0-1-0.4l-0.6-1.2c-0.1-0.1-0.2-0.3-0.3-0.3l-1.2-0.6
	c-0.3-0.2-0.5-0.6-0.4-1l0.4-1.3c0.1-0.2,0.1-0.3,0-0.5l-0.4-1.3c-0.1-0.4,0-0.8,0.4-1l1.2-0.6c0.1-0.1,0.3-0.2,0.3-0.3l0.6-1.2
	c0.2-0.3,0.6-0.5,1-0.4l1.3,0.4C252.9,26.6,253.1,26.6,253.2,26.6z"/>
<circle class="a1" cx="253" cy="31.1" r="3.1"/>


</svg>
